<?xml version="1.0" encoding="utf-8"?>
<!-- Generator: Adobe Illustrator 16.0.0, SVG Export Plug-In . SVG Version: 6.00 Build 0)  -->
<!DOCTYPE svg PUBLIC "-//W3C//DTD SVG 1.1//EN" "http://www.w3.org/Graphics/SVG/1.1/DTD/svg11.dtd">
<svg version="1.1" id="Capa_1" xmlns="http://www.w3.org/2000/svg" xmlns:xlink="http://www.w3.org/1999/xlink" x="0px" y="0px"
	 width="55px" height="55px" viewBox="46.501 46.5 55 55" enable-background="new 46.501 46.5 55 55" xml:space="preserve">
<g>
	<g>
		<path d="M89.078,79.792c-0.014-0.069-0.034-0.137-0.062-0.2c-0.026-0.066-0.06-0.129-0.099-0.187
			c-0.038-0.059-0.084-0.113-0.133-0.163c-0.249-0.249-0.621-0.364-0.97-0.294c-0.067,0.014-0.136,0.035-0.201,0.063
			c-0.064,0.026-0.127,0.06-0.185,0.099c-0.06,0.039-0.114,0.084-0.163,0.133c-0.05,0.05-0.096,0.104-0.135,0.163
			c-0.038,0.058-0.071,0.12-0.1,0.187c-0.026,0.063-0.046,0.131-0.061,0.2c-0.014,0.069-0.021,0.14-0.021,0.21
			c0,0.282,0.114,0.56,0.315,0.759c0.05,0.05,0.104,0.095,0.163,0.134c0.058,0.038,0.12,0.071,0.185,0.099
			c0.065,0.027,0.134,0.049,0.201,0.063c0.069,0.014,0.141,0.021,0.21,0.021c0.283,0,0.56-0.115,0.76-0.315
			c0.2-0.199,0.314-0.477,0.314-0.759C89.1,79.932,89.093,79.861,89.078,79.792z"/>
	</g>
</g>
<g>
	<g>
		<path d="M99.139,64.399V59.28c1.374-0.485,2.362-1.797,2.362-3.336c0-1.95-1.586-3.536-3.536-3.536
			c-0.871,0-1.67,0.316-2.287,0.841l-4.204-2.427c0.058-0.253,0.088-0.516,0.088-0.786c0-1.95-1.586-3.536-3.536-3.536
			c-1.949,0-3.536,1.586-3.536,3.536c0,0.27,0.03,0.533,0.088,0.786l-4.204,2.427c-0.617-0.524-1.416-0.841-2.287-0.841
			c-1.949,0-3.535,1.586-3.535,3.536c0,1.539,0.987,2.851,2.361,3.336v5.119c-1.375,0.484-2.361,1.797-2.361,3.336
			c0,0.152,0.009,0.303,0.028,0.45l-3.369,1.945c-0.765-0.42-1.563-0.78-2.384-1.074V60.69h1.708c0.593,0,1.074-0.481,1.074-1.074
			v-4.903c0-0.593-0.48-1.074-1.074-1.074H55.881c-0.593,0-1.074,0.481-1.074,1.074v4.903c0,0.593,0.481,1.074,1.074,1.074h1.709
			v8.366c-3.05,1.093-5.775,3.093-7.734,5.695c-2.194,2.913-3.354,6.386-3.354,10.041c0,9.213,7.495,16.707,16.707,16.707
			c6.787,0,12.642-4.068,15.254-9.895c0.021-0.01,0.042-0.021,0.062-0.033l10.039-5.796c0.514-0.297,0.689-0.954,0.394-1.468
			s-0.953-0.689-1.467-0.394l-7.997,4.617c0.275-1.202,0.422-2.454,0.422-3.739c0-3.656-1.159-7.128-3.353-10.041
			c-0.946-1.255-2.07-2.371-3.322-3.312l2.256-1.302c0.646,0.697,1.569,1.133,2.592,1.133c0.986,0,1.879-0.406,2.521-1.059
			l3.97,2.292c-0.058,0.253-0.088,0.516-0.088,0.786c0,1.95,1.587,3.536,3.536,3.536s3.536-1.586,3.536-3.536
			c0-0.27-0.03-0.533-0.087-0.786l3.97-2.292c0.642,0.653,1.535,1.059,2.521,1.059c1.949,0,3.535-1.586,3.535-3.536
			C101.501,66.196,100.513,64.884,99.139,64.399z M56.955,58.542v-2.754h12.506v2.754H56.955z M77.766,84.794
			c0,8.027-6.53,14.558-14.558,14.558S48.65,92.821,48.65,84.794c0-6.461,4.15-12.06,10.326-13.934
			c0.453-0.137,0.763-0.555,0.763-1.028V60.69h6.94v9.142c0,0.473,0.31,0.891,0.763,1.028
			C73.616,72.734,77.766,78.333,77.766,84.794z M97.965,54.557c0.766,0,1.388,0.623,1.388,1.388s-0.623,1.388-1.388,1.388
			c-0.766,0-1.388-0.623-1.388-1.388S97.199,54.557,97.965,54.557z M88.025,48.648c0.766,0,1.388,0.623,1.388,1.388
			s-0.623,1.388-1.388,1.388s-1.388-0.623-1.388-1.388S87.261,48.648,88.025,48.648z M76.699,55.944
			c0-0.765,0.622-1.388,1.387-1.388c0.766,0,1.388,0.623,1.388,1.388s-0.622,1.388-1.388,1.388
			C77.321,57.332,76.699,56.709,76.699,55.944z M78.086,69.123c-0.765,0-1.387-0.623-1.387-1.388s0.622-1.387,1.387-1.387
			c0.766,0,1.388,0.622,1.388,1.387S78.852,69.123,78.086,69.123z M88.025,74.677c-0.765,0-1.388-0.622-1.388-1.387
			c0-0.765,0.623-1.387,1.388-1.387s1.388,0.623,1.388,1.387C89.413,74.055,88.791,74.677,88.025,74.677z M94.429,67.735
			c0,0.189,0.015,0.375,0.044,0.557l-4.092,2.362c-0.626-0.56-1.451-0.9-2.355-0.9c-0.903,0-1.729,0.341-2.355,0.901l-4.091-2.362
			c0.027-0.182,0.043-0.368,0.043-0.557c0-1.612-1.084-2.976-2.562-3.399v-4.992c1.478-0.424,2.562-1.788,2.562-3.399
			c0-0.301-0.038-0.593-0.109-0.873l4.157-2.4c0.626,0.56,1.452,0.901,2.355,0.901c0.904,0,1.729-0.341,2.355-0.901l4.157,2.4
			c-0.071,0.28-0.109,0.572-0.109,0.873c0,1.612,1.084,2.975,2.562,3.399v4.992C95.514,64.76,94.429,66.124,94.429,67.735z
			 M97.965,69.123c-0.766,0-1.388-0.623-1.388-1.388s0.622-1.387,1.388-1.387s1.388,0.622,1.388,1.387S98.73,69.123,97.965,69.123z"
			/>
	</g>
</g>
<g>
	<g>
		<path d="M73.439,77.858c-0.2-0.294-0.533-0.47-0.888-0.47H53.865c-0.356,0-0.689,0.176-0.889,0.47
			c-1.395,2.053-2.132,4.451-2.132,6.936c0,6.817,5.546,12.364,12.364,12.364c6.817,0,12.364-5.547,12.364-12.364
			C75.572,82.31,74.835,79.911,73.439,77.858z M63.208,95.01c-5.633,0-10.216-4.583-10.216-10.216c0-1.865,0.503-3.671,1.459-5.258
			h17.513c0.957,1.587,1.459,3.393,1.459,5.258C73.424,90.427,68.841,95.01,63.208,95.01z"/>
	</g>
</g>
<g>
	<g>
		<path d="M57.356,80.204c-1.585,0-2.875,1.29-2.875,2.874c0,1.586,1.29,2.875,2.875,2.875c1.585,0,2.875-1.289,2.875-2.875
			C60.231,81.494,58.942,80.204,57.356,80.204z M57.356,83.805c-0.401,0-0.727-0.325-0.727-0.726s0.326-0.727,0.727-0.727
			c0.4,0,0.726,0.326,0.726,0.727S57.757,83.805,57.356,83.805z"/>
	</g>
</g>
<g>
	<g>
		<path d="M60.646,86.199c-1.814,0-3.291,1.476-3.291,3.29s1.476,3.29,3.291,3.29c1.814,0,3.29-1.476,3.29-3.29
			S62.46,86.199,60.646,86.199z M60.646,90.631c-0.629,0-1.142-0.512-1.142-1.142s0.513-1.142,1.142-1.142s1.142,0.512,1.142,1.142
			S61.275,90.631,60.646,90.631z"/>
	</g>
</g>
<g>
	<g>
		<path d="M71.106,74.663c-0.014-0.068-0.034-0.136-0.061-0.202c-0.027-0.064-0.061-0.126-0.099-0.184
			c-0.04-0.059-0.085-0.114-0.134-0.164c-0.049-0.049-0.104-0.095-0.163-0.134c-0.058-0.039-0.121-0.072-0.186-0.099
			c-0.064-0.027-0.132-0.047-0.201-0.062c-0.139-0.028-0.281-0.028-0.418,0c-0.069,0.014-0.137,0.034-0.201,0.062
			c-0.065,0.026-0.128,0.06-0.186,0.099c-0.059,0.04-0.114,0.085-0.163,0.134s-0.094,0.104-0.133,0.164
			c-0.039,0.057-0.072,0.12-0.099,0.184c-0.026,0.066-0.048,0.133-0.061,0.202c-0.014,0.069-0.022,0.141-0.022,0.21
			s0.008,0.141,0.022,0.21c0.013,0.068,0.035,0.136,0.061,0.2c0.027,0.065,0.061,0.128,0.099,0.186
			c0.039,0.06,0.084,0.114,0.133,0.164c0.049,0.049,0.104,0.094,0.163,0.133c0.058,0.038,0.121,0.071,0.186,0.099
			c0.064,0.026,0.132,0.047,0.201,0.062c0.069,0.014,0.14,0.021,0.209,0.021s0.14-0.008,0.209-0.021
			c0.069-0.015,0.137-0.035,0.201-0.062c0.065-0.027,0.128-0.061,0.186-0.099c0.059-0.039,0.114-0.085,0.163-0.133
			c0.049-0.05,0.094-0.104,0.134-0.164c0.039-0.058,0.072-0.12,0.099-0.186c0.027-0.064,0.047-0.132,0.061-0.2
			c0.014-0.069,0.021-0.141,0.021-0.21S71.121,74.732,71.106,74.663z"/>
	</g>
</g>
<g>
	<g>
		<path d="M66.244,73.799h-9.881c-0.593,0-1.075,0.481-1.075,1.074c0,0.593,0.481,1.074,1.075,1.074h9.881
			c0.593,0,1.074-0.481,1.074-1.074C67.318,74.28,66.837,73.799,66.244,73.799z"/>
	</g>
</g>
</svg>
