<?xml version="1.0" encoding="utf-8"?>
<!-- Generator: Adobe Illustrator 16.0.0, SVG Export Plug-In . SVG Version: 6.00 Build 0)  -->
<!DOCTYPE svg PUBLIC "-//W3C//DTD SVG 1.1//EN" "http://www.w3.org/Graphics/SVG/1.1/DTD/svg11.dtd">
<svg version="1.1" id="Layer_1" xmlns="http://www.w3.org/2000/svg" xmlns:xlink="http://www.w3.org/1999/xlink" x="0px" y="0px"
	 width="66px" height="38.918px" viewBox="297.132 175.211 66 38.918" enable-background="new 297.132 175.211 66 38.918"
	 xml:space="preserve">
<g>
	<path d="M357.398,199.511c-0.568-0.141-1.162-0.216-1.773-0.216c-0.005,0-0.01,0-0.015,0s-0.01,0-0.015,0h-44.845
		c-0.02,0-0.04,0.001-0.06,0.001s-0.04-0.001-0.06-0.001c-3.597,0-6.602,2.574-7.273,5.978c-0.094,0.466-0.144,0.947-0.144,1.439
		s0.05,0.974,0.144,1.439c0.672,3.403,3.677,5.978,7.273,5.978c0.02,0,0.04-0.001,0.06-0.001s0.04,0.001,0.06,0.001h44.845
		c0.005,0,0.01,0,0.015,0s0.01,0,0.015,0c0.611,0,1.205-0.075,1.773-0.216c3.288-0.797,5.734-3.723,5.734-7.201
		S360.687,200.308,357.398,199.511z M350.631,201.233c-0.27,0.246-0.521,0.513-0.752,0.795h-33.501
		c-0.231-0.282-0.482-0.549-0.752-0.795H350.631z M348.963,209.966h-31.668c0.482-0.983,0.753-2.088,0.753-3.254
		c0-1.207-0.292-2.347-0.805-3.355h31.772c-0.514,1.009-0.805,2.148-0.805,3.355C348.21,207.878,348.481,208.982,348.963,209.966z
		 M310.691,212.188c-2.685-0.028-4.921-1.911-5.429-4.402c-0.069-0.348-0.106-0.707-0.106-1.074s0.037-0.726,0.106-1.073
		c0.507-2.489,2.744-4.375,5.429-4.403c2.993,0.032,5.417,2.477,5.417,5.477C316.108,209.716,313.684,212.156,310.691,212.188z
		 M315.626,212.189c0.301-0.274,0.579-0.575,0.831-0.896H349.8c0.253,0.32,0.53,0.621,0.831,0.896H315.626z M356.936,212.03
		c-0.425,0.103-0.869,0.158-1.325,0.159c-3.013-0.008-5.461-2.459-5.461-5.478c0-3.015,2.448-5.47,5.461-5.478
		c0.456,0.001,0.9,0.057,1.325,0.159c2.389,0.589,4.166,2.75,4.166,5.318C361.102,209.283,359.324,211.442,356.936,212.03z"/>
	<path d="M310.722,202.024c-2.637,0-4.782,2.104-4.782,4.688c0,2.587,2.145,4.692,4.782,4.692c2.637,0,4.782-2.105,4.782-4.692
		C315.504,204.129,313.359,202.024,310.722,202.024z M310.61,210.074c-1.904-0.064-3.402-1.622-3.34-3.478
		c0.062-1.852,1.66-3.306,3.564-3.242s3.401,1.621,3.339,3.473C314.112,208.683,312.514,210.138,310.61,210.074z"/>
	<path d="M310.722,203.94c-1.556,0-2.822,1.245-2.822,2.771c0,1.53,1.266,2.775,2.822,2.775s2.822-1.245,2.822-2.775
		C313.544,205.186,312.278,203.94,310.722,203.94z M310.722,208.159c-0.824,0-1.493-0.647-1.493-1.447
		c0-0.795,0.669-1.443,1.493-1.443s1.494,0.648,1.494,1.443C312.216,207.512,311.546,208.159,310.722,208.159z"/>
	<path d="M355.716,202.024c-2.637,0-4.782,2.104-4.782,4.688c0,2.587,2.146,4.692,4.782,4.692s4.781-2.105,4.781-4.692
		C360.497,204.129,358.353,202.024,355.716,202.024z M355.604,210.074c-1.904-0.064-3.401-1.622-3.34-3.478
		c0.063-1.852,1.66-3.306,3.564-3.242c1.903,0.063,3.4,1.621,3.339,3.473C359.105,208.683,357.507,210.138,355.604,210.074z"/>
	<path d="M355.716,203.94c-1.556,0-2.822,1.245-2.822,2.771c0,1.53,1.267,2.775,2.822,2.775s2.821-1.245,2.821-2.775
		C358.537,205.186,357.271,203.94,355.716,203.94z M355.716,208.159c-0.824,0-1.494-0.647-1.494-1.447
		c0-0.795,0.67-1.443,1.494-1.443c0.823,0,1.493,0.648,1.493,1.443C357.209,207.512,356.539,208.159,355.716,208.159z"/>
	<path d="M310.785,198.843h0.017c0-0.377,0.443-0.693,0.967-0.693h0.016h2.209h1.536h2.208h21.572h1.384h2.012h1.394h4.143
		c0.524,0,0.968,0.316,0.968,0.693h1.882c0-1.42-1.277-2.578-2.85-2.578h-2.511l9.352-10.794c0.183-0.206,0.419-0.423,0.653-0.601
		c0.361,1.378,1.573,2.393,3.012,2.393c0.611,0,1.066-0.166,1.393-0.505c0.515-0.535,0.482-1.271,0.453-1.979
		c-0.008-0.188-0.017-0.391-0.017-0.604v-4.604c0-0.209,0.009-0.414,0.014-0.614c0.034-0.832,0.069-1.693-0.505-2.289
		c-0.327-0.34-0.777-0.512-1.338-0.512c-1.724,0-3.123,1.459-3.123,3.253v0.172c-2.251,0.616-4.02,2.775-4.097,2.873l-11.706,13.811
		h-20.738l10.137-14.197h15.515c1.953,0,3.543-1.537,3.543-3.428s-1.59-3.428-3.543-3.428h-19.823c-1.953,0-3.541,1.537-3.541,3.428
		c0,1.396,0.866,2.599,2.105,3.133l-10.347,14.492h-1.362c-1.033,0-1.939,0.5-2.439,1.247h-12.198v1.334h13.652V198.843z
		 M357.422,179.409c0-0.804,0.596-1.457,1.34-1.532c0.069,0.142,0.049,0.664,0.034,1.011c-0.009,0.221-0.016,0.451-0.016,0.683
		v4.604c0,0.241,0.01,0.469,0.019,0.68c0.009,0.262,0.053,0.627,0.126,0.598c-0.021,0.005-0.073,0.014-0.177,0.014
		c-0.73,0-1.326-0.652-1.326-1.452V179.409z M352.976,183.655c0.416-0.51,1.481-1.605,2.649-2.104v1.22
		c-0.973,0.38-1.771,1.245-1.96,1.46l-10.423,12.033h-0.951L352.976,183.655z M343.274,177.008h1.462
		c0.96,0,1.746,0.733,1.746,1.631s-0.786,1.631-1.746,1.631h-1.462c-0.963,0-1.746-0.733-1.746-1.631
		S342.312,177.008,343.274,177.008z M323.17,178.639c0-0.898,0.782-1.631,1.744-1.631h15.246c-0.271,0.485-0.428,1.041-0.428,1.631
		s0.156,1.146,0.428,1.631h-15.246C323.952,180.271,323.17,179.538,323.17,178.639z M325.476,182.067h1.537l-10.138,14.197h-1.536
		L325.476,182.067z"/>
</g>
</svg>
