<?xml version="1.0" encoding="utf-8"?>
<!-- Generator: Adobe Illustrator 16.0.0, SVG Export Plug-In . SVG Version: 6.00 Build 0)  -->
<!DOCTYPE svg PUBLIC "-//W3C//DTD SVG 1.1//EN" "http://www.w3.org/Graphics/SVG/1.1/DTD/svg11.dtd">
<svg version="1.1" id="Layer_1" xmlns="http://www.w3.org/2000/svg" xmlns:xlink="http://www.w3.org/1999/xlink" x="0px" y="0px"
	 width="59.054px" height="60px" viewBox="222.434 226.001 59.054 60" enable-background="new 222.434 226.001 59.054 60"
	 xml:space="preserve">
<path d="M263.807,262.773c11.937-8.567,11.048-26.578-1.571-33.989c-0.039-0.027-0.08-0.051-0.124-0.071
	c-7.497-4.331-17.108-3.458-23.731,2.498c-0.361,0.325-0.391,0.88-0.066,1.241s0.88,0.39,1.241,0.066
	c4.317-3.881,10.203-5.513,15.873-4.436c-0.081,0.958-0.748,1.995-1.477,2.688c-1.432,1.361-7.359,0.187-9.512,4.894
	c-0.301,0.657-0.715,1.823-1.088,2.407c-0.189-0.659-0.343-1.695-1.174-2.397c-0.499-0.422-1.032-0.608-1.585-0.554
	c-0.995,0.097-1.686,0.962-2.099,1.479c-0.872,1.092-0.484,2.073-0.201,2.789c0.262,0.663,0.488,1.234,0.067,2.187
	c-0.403,0.914,0.435,1.912,0.71,2.24c1.13,1.344,3.965,3.572,5.692,3.144c4.216-1.048,5.411,5.824,8.217,6.54
	c2.102,0.536,4.124,1.751,3.869,2.859c-0.786,3.41-4.021,3.077-6.049,3.975c-1.117,0.496-3.14,1.901-4.498,3.621
	c-1.072-0.342-2.102-0.776-3.08-1.297c0.133-0.31,0.279-0.634,0.44-0.974c1.469-3.084,1.372-4.689-2.103-7.557
	c-1.666-1.375-1.09-3.234-0.314-4.551c0.494-0.839,0.25-1.928-0.557-2.479c-1.253-0.857-4.924-3.054-6.636-5.583
	c0.631-2.373,1.702-4.556,3.193-6.498c0.295-0.385,0.223-0.937-0.162-1.233c-0.386-0.295-0.937-0.223-1.232,0.162
	c-4.911,6.399-5.797,15.603-1.096,23.119c6.195,9.904,19.354,12.499,28.853,5.851C263.697,262.867,263.752,262.824,263.807,262.773z
	 M263.551,260.763c-0.149-1.357,1.08-3.394,2.19-5.23c1.455-2.408,2.829-4.682,1.736-6.308c-1.035-1.541-2.564-0.919-4.354-2.396
	c-1.049-0.866-2.025-1.961-1.45-4.959c0.162-0.85,0.979-1.908,2.3-2.979c0.86-0.698,1.183-1.878,0.801-2.936
	c-0.153-0.422-0.159-0.695-0.118-0.801c0.631-1.619-2.041-2.491-2.272-4.207C272.744,237.975,273.252,253.009,263.551,260.763z
	 M233.598,243.764c2.004,2.218,4.755,3.864,6.099,4.783c0.046,0.031,0.061,0.089,0.034,0.135c-1.564,2.657-1.306,5.135,0.71,6.799
	c3.335,2.752,2.543,3.344,1.26,6.267C235.989,257.957,232.581,251.043,233.598,243.764z M248.194,264.45
	c1.09-1.165,2.5-2.148,3.319-2.511c1.675-0.742,6.003-0.646,7.05-5.188c0.548-2.378-2.191-4.203-5.148-4.957
	c-1.612-0.411-3.583-7.906-9.075-6.542c-0.111,0.026-0.654-0.039-1.671-0.671c-1.417-0.882-2.448-2.018-2.635-2.449
	c0.625-1.545,0.188-2.651-0.105-3.391c-0.269-0.68-0.274-0.777-0.061-1.045c0.158-0.198,0.64-0.801,0.896-0.827
	c0.06-0.007,0.164,0.049,0.279,0.147c0.725,0.614,0.355,2.708,1.956,3.012c1.712,0.325,2.394-2.217,3.04-3.632
	c1.752-3.83,6.995-2.325,9.125-4.352c1.106-1.052,1.805-2.331,1.985-3.55c1.239,0.359,2.425,0.84,3.543,1.435
	c-0.537,2.56,1.684,4.03,2.262,4.787c-0.141,0.521-0.084,1.137,0.168,1.836c0.129,0.355,0.026,0.747-0.254,0.974
	c-1.161,0.942-2.61,2.403-2.919,4.013c-0.722,3.765,0.636,5.472,2.058,6.646c3.305,2.728,6.135-0.021,2.231,6.438
	c-1.464,2.422-3.099,5.128-2.215,7.24C258.062,264.42,253.139,265.479,248.194,264.45z"/>
<path d="M236.379,276.919c0.171,0.238,0.44,0.364,0.713,0.364c0.703,0,1.137-0.805,0.712-1.394c-1.154-1.599-6.266-4.27-8.995-6.961
	c-1.058-1.044-2.913-4.65-3.4-6.17l-1.201-4.323c-0.138-0.498,0.588-0.816,0.842-0.259c1.399,2.983,1.519,3.592,2.221,4.496
	c1.613,2.078,3.708,3.792,6.062,4.967l3.743,3.764c0.172,0.173,0.397,0.26,0.623,0.26c0.776,0,1.175-0.944,0.624-1.499l-3.777-3.799
	l-1.489-2.313c-0.251-0.517,0.416-1.021,0.857-0.564c5.11,5.372,4.866,5.21,5.129,5.338l5.484,2.664
	c2.994,1.455,2.78,4.626,2.851,4.852c0.044,0.483,0.471,0.838,0.956,0.794c0.484-0.044,0.84-0.472,0.795-0.955l-0.078-0.842
	c-0.214-2.327-1.654-4.408-3.756-5.43l-5.34-2.595l-4.771-5.042c-0.758-0.783-1.963-0.941-2.868-0.375
	c-0.815,0.51-1.201,1.461-1.028,2.361c-0.977-0.781-1.863-1.677-2.628-2.663c-0.505-0.65-0.521-0.946-2.009-4.146
	c-0.438-0.964-1.488-1.5-2.498-1.275c-1.226,0.274-1.975,1.522-1.639,2.733c1.618,5.822,1.104,4.019,1.214,4.369
	c0.555,1.747,2.54,5.616,3.846,6.904c1.488,1.468,3.578,2.895,5.42,4.152C233.76,274.854,235.93,276.297,236.379,276.919z"/>
<path d="M280,256.235c-1.072-0.36-2.234,0.145-2.702,1.174c-1.505,3.233-1.521,3.533-2.027,4.186
	c-0.766,0.986-1.651,1.882-2.629,2.663c0.174-0.9-0.213-1.851-1.027-2.361c-0.904-0.565-2.11-0.408-2.874,0.382l-4.765,5.036
	l-5.34,2.594c-3.985,1.936-3.757,6.063-3.838,6.308c-0.044,0.484,0.312,0.912,0.795,0.956c0.482,0.045,0.911-0.312,0.956-0.795
	c0.07-0.225-0.145-3.431,2.854-4.887c5.739-2.811,5.531-2.632,5.738-2.851l4.869-5.146c0.452-0.467,1.112,0.044,0.862,0.559
	l-1.488,2.313l-3.777,3.799c-0.553,0.555-0.152,1.499,0.623,1.499c0.668,0,0.695-0.456,4.366-4.023
	c3.417-1.704,6.036-4.52,6.778-6.152l1.523-3.351c0.219-0.483,0.974-0.24,0.813,0.34l-1.19,4.282
	c-0.486,1.52-2.341,5.126-3.399,6.169c-2.722,2.686-7.824,5.353-8.987,6.951c-0.426,0.584,0.001,1.397,0.71,1.397
	c0.271,0,0.54-0.126,0.712-0.362c0.885-1.215,6.006-3.978,8.8-6.734c1.307-1.288,3.291-5.157,3.846-6.904
	c0.11-0.352-0.344,1.237,1.203-4.328C281.723,257.799,281.106,256.607,280,256.235z"/>
<path d="M248.86,278.938h-10.765c-1.124,0-2.038,0.915-2.038,2.038v2.988c0,1.123,0.914,2.037,2.038,2.037h10.765
	c1.124,0,2.038-0.914,2.038-2.037v-2.988C250.897,279.853,249.983,278.938,248.86,278.938z M249.14,283.964
	c0,0.154-0.125,0.279-0.28,0.279h-10.765c-0.154,0-0.28-0.125-0.28-0.279v-2.988c0-0.154,0.125-0.279,0.28-0.279h10.765
	c0.154,0,0.28,0.125,0.28,0.279V283.964z"/>
<path d="M265.836,278.938h-10.765c-1.124,0-2.038,0.915-2.038,2.038v2.988c0,1.123,0.914,2.037,2.038,2.037h10.765
	c1.123,0,2.037-0.914,2.037-2.037v-2.988C267.873,279.853,266.959,278.938,265.836,278.938z M266.115,283.964
	c0,0.154-0.125,0.279-0.279,0.279h-10.765c-0.154,0-0.279-0.125-0.279-0.279v-2.988c0-0.154,0.125-0.279,0.279-0.279h10.765
	c0.154,0,0.279,0.125,0.279,0.279V283.964z"/>
</svg>
