<?xml version="1.0" encoding="utf-8"?>
<!-- Generator: Adobe Illustrator 16.0.0, SVG Export Plug-In . SVG Version: 6.00 Build 0)  -->
<!DOCTYPE svg PUBLIC "-//W3C//DTD SVG 1.1//EN" "http://www.w3.org/Graphics/SVG/1.1/DTD/svg11.dtd">
<svg version="1.1" id="Layer_2" xmlns="http://www.w3.org/2000/svg" xmlns:xlink="http://www.w3.org/1999/xlink" x="0px" y="0px"
	 width="60.892px" height="61px" viewBox="225.57 225.662 60.892 61" enable-background="new 225.57 225.662 60.892 61"
	 xml:space="preserve">
<path d="M283.156,259.19c-0.585,0-1.16,0.158-1.664,0.456l-10.798-10.797c-0.156-0.156-0.368-0.244-0.589-0.244h-13.259v-5.151
	h23.121c0.459,1.764,2.262,2.821,4.025,2.361s2.821-2.262,2.361-4.026s-2.263-2.821-4.026-2.361c-1.156,0.301-2.06,1.205-2.36,2.361
	h-23.121v-3.726h13.259c0.221,0,0.433-0.088,0.589-0.244l3.567-3.568c1.62,0.843,3.616,0.214,4.459-1.406
	c0.844-1.62,0.214-3.616-1.405-4.459c-1.62-0.843-3.617-0.213-4.46,1.406c-0.553,1.063-0.488,2.341,0.17,3.342l-3.265,3.264h-12.914
	v-1.259c-0.004-5.238-4.253-9.481-9.491-9.477c-4.947,0.003-9.061,3.81-9.448,8.743c-4.029,0.592-7.015,4.048-7.016,8.12
	c-0.001,1.001,0.184,1.993,0.544,2.926c-6.213,4.34-7.732,12.896-3.392,19.109c0.85,1.216,1.891,2.286,3.083,3.169
	c-1.077,4.399,1.616,8.839,6.016,9.916c0.252,0.063,0.507,0.112,0.765,0.149c0.41,5.222,4.975,9.123,10.196,8.714
	c4.933-0.387,8.74-4.501,8.743-9.449v-0.148h9.109l3.547,4.509c-1.064,1.489-0.721,3.56,0.769,4.625
	c1.489,1.064,3.56,0.721,4.625-0.769c1.064-1.489,0.721-3.56-0.769-4.625c-0.979-0.699-2.259-0.814-3.347-0.3l-3.768-4.787
	c-0.157-0.201-0.398-0.318-0.653-0.318h-9.514v-4.994h8.791c0.46,1.764,2.263,2.82,4.026,2.361c1.764-0.46,2.82-2.263,2.36-4.026
	s-2.262-2.82-4.025-2.361c-1.156,0.302-2.06,1.205-2.361,2.361h-8.791v-4.994h14.023c0.459,1.764,2.262,2.82,4.025,2.36
	c1.764-0.459,2.821-2.262,2.361-4.025s-2.263-2.821-4.026-2.361c-1.156,0.302-2.06,1.205-2.36,2.361h-14.023v-4.995h5.003
	c0.503,1.753,2.332,2.765,4.084,2.262s2.765-2.331,2.262-4.083s-2.331-2.765-4.084-2.262c-1.148,0.33-2.029,1.255-2.302,2.418
	h-4.963v-4.995h12.914l10.553,10.553c-0.919,1.572-0.389,3.591,1.184,4.51c1.571,0.919,3.591,0.389,4.51-1.184
	c0.918-1.571,0.389-3.591-1.184-4.51C284.318,259.347,283.743,259.191,283.156,259.19L283.156,259.19z M283.156,240.986
	c0.903,0,1.636,0.731,1.637,1.635c0,0.903-0.732,1.636-1.635,1.636c-0.903,0-1.636-0.731-1.637-1.635v0
	C281.522,241.718,282.254,240.987,283.156,240.986z M275.784,229.688c0.902,0,1.635,0.732,1.635,1.635s-0.732,1.635-1.635,1.635
	c-0.903,0-1.635-0.732-1.635-1.635l0,0C274.15,230.42,274.881,229.689,275.784,229.688z M273.821,283.33
	c0,0.903-0.731,1.635-1.635,1.635c-0.902,0-1.635-0.731-1.635-1.635c0-0.902,0.732-1.635,1.635-1.635l0,0
	C273.09,281.696,273.82,282.428,273.821,283.33z M268.827,267.782c0.903,0,1.636,0.731,1.636,1.635s-0.731,1.636-1.635,1.636
	s-1.636-0.731-1.636-1.635v-0.001C267.193,268.515,267.925,267.783,268.827,267.782z M274.06,261.123
	c0.903-0.001,1.636,0.731,1.636,1.635s-0.731,1.636-1.635,1.636s-1.636-0.731-1.636-1.635c0-0.001,0-0.001,0-0.001
	C272.426,261.855,273.157,261.124,274.06,261.123z M265.019,254.383c0.903,0,1.636,0.732,1.637,1.635
	c0,0.903-0.732,1.636-1.636,1.636c-0.902,0.001-1.635-0.731-1.636-1.635l0,0C263.385,255.116,264.116,254.384,265.019,254.383z
	 M255.182,277.058c-0.028,4.318-3.552,7.796-7.87,7.768c-4.271-0.027-7.729-3.478-7.768-7.749c0-0.014,0-0.027,0-0.038
	c0-0.443-0.346-0.809-0.788-0.832c-3.606-0.186-6.378-3.26-6.192-6.865c0.03-0.577,0.136-1.147,0.315-1.696
	c0.115-0.354-0.018-0.74-0.326-0.948c-5.522-3.722-6.982-11.216-3.26-16.739c0.949-1.407,2.184-2.599,3.624-3.496
	c0.362-0.226,0.495-0.688,0.307-1.071c-1.589-3.238-0.252-7.151,2.986-8.74c0.795-0.391,1.661-0.615,2.546-0.66
	c0.442-0.023,0.788-0.389,0.788-0.832c0-0.01,0-0.024,0-0.038c0.038-4.318,3.57-7.788,7.888-7.75
	c4.271,0.038,7.722,3.496,7.75,7.768L255.182,277.058z M283.156,264.126c-0.902,0-1.635-0.732-1.635-1.636s0.732-1.636,1.635-1.636
	c0.903,0,1.636,0.732,1.636,1.636l0,0C284.791,263.394,284.06,264.124,283.156,264.126L283.156,264.126z"/>
</svg>
